<svg width="33" xmlns="http://www.w3.org/2000/svg" height="33" id="screenshot-3d303ca3-d359-8098-8007-ef66ec52ee9a" viewBox="0 0 33 33" xmlns:xlink="http://www.w3.org/1999/xlink" fill="none" version="1.1"><g id="shape-3d303ca3-d359-8098-8007-ef66ec52ee9a" width="24" class="lucide lucide-star-icon lucide-star" height="24" rx="0" ry="0" style="fill: rgb(0, 0, 0);"><g id="shape-3d303ca3-d359-8098-8007-ef66ec5357f3" style="display: none;"><g class="fills" id="fills-3d303ca3-d359-8098-8007-ef66ec5357f3"><rect width="33" height="33" x="0" stroke-linejoin="round" transform="matrix(1.000000, 0.000000, 0.000000, 1.000000, 0.000000, 0.000000)" style="fill: none;" ry="0" fill="none" stroke-linecap="round" rx="0" y="0"/></g><g fill="none" stroke-linejoin="round" stroke-linecap="round" id="strokes-246df52d-3a7c-80fe-8007-ef67039b2c1f-3d303ca3-d359-8098-8007-ef66ec5357f3" class="strokes"><g class="inner-stroke-shape" transform="matrix(1.000000, 0.000000, 0.000000, 1.000000, 0.000000, 0.000000)"><defs><clipPath id="inner-stroke-render-2-3d303ca3-d359-8098-8007-ef66ec5357f3-0"><use href="#stroke-shape-render-2-3d303ca3-d359-8098-8007-ef66ec5357f3-0"/></clipPath><rect rx="0" ry="0" x="0" y="0" width="33" height="33" id="stroke-shape-render-2-3d303ca3-d359-8098-8007-ef66ec5357f3-0" style="fill: none; stroke-width: 4; stroke: rgb(228, 225, 243); stroke-opacity: 1;"/></defs><use href="#stroke-shape-render-2-3d303ca3-d359-8098-8007-ef66ec5357f3-0" clip-path="url('#inner-stroke-render-2-3d303ca3-d359-8098-8007-ef66ec5357f3-0')"/></g></g></g><g id="shape-3d303ca3-d359-8098-8007-ef66ec53c269"><g class="fills" id="fills-3d303ca3-d359-8098-8007-ef66ec53c269"><path d="M15.846923828125,3.1556396484375C15.96978759765625,2.9072265625,16.222900390625,2.7501220703125,16.5,2.7501220703125C16.777099609375,2.7501220703125,17.03021240234375,2.9072265625,17.153076171875,3.1556396484375L20.329345703125,9.5892333984375C20.754150390625,10.44873046875,21.57391357421875,11.044921875,22.52252197265625,11.184326171875L29.62579345703125,12.2237548828125C29.9002685546875,12.2635498046875,30.12847900390625,12.4556884765625,30.2142333984375,12.7196044921875C30.30010986328125,12.9833984375,30.22857666015625,13.273193359375,30.030029296875,13.4666748046875L24.89300537109375,18.468994140625C24.20526123046875,19.13916015625,23.89111328125,20.104736328125,24.0528564453125,21.05126953125L25.265625,28.11865234375C25.31414794921875,28.393310546875,25.2017822265625,28.67138671875,24.97625732421875,28.8350830078125C24.750732421875,28.9989013671875,24.4515380859375,29.0196533203125,24.20550537109375,28.8887939453125L17.85577392578125,25.55029296875C17.0064697265625,25.1043701171875,15.9921875,25.1043701171875,15.14288330078125,25.55029296875L8.79449462890625,28.8887939453125C8.548583984375,29.01904296875,8.24993896484375,28.9976806640625,8.02490234375,28.833984375C7.7998046875,28.67041015625,7.6876220703125,28.392822265625,7.7357177734375,28.11865234375L8.9471435546875,21.052734375C9.10955810546875,20.105712890625,8.79534912109375,19.139404296875,8.10699462890625,18.468994140625L2.969970703125,13.4681396484375C2.7696533203125,13.274658203125,2.6971435546875,12.98388671875,2.78314208984375,12.7191162109375C2.86907958984375,12.4541015625,3.0985107421875,12.2613525390625,3.37420654296875,12.222412109375L10.47613525390625,11.184326171875C11.42584228515625,11.046142578125,12.2469482421875,10.4495849609375,12.6719970703125,9.5892333984375Z" fill="none" stroke-linejoin="round" stroke-linecap="round" style="fill: none;"/></g><g fill="none" stroke-linejoin="round" stroke-linecap="round" id="strokes-246df52d-3a7c-80fe-8007-ef67039cbb23-3d303ca3-d359-8098-8007-ef66ec53c269" class="strokes"><g class="inner-stroke-shape"><defs><clipPath id="inner-stroke-render-3-3d303ca3-d359-8098-8007-ef66ec53c269-0"><use href="#stroke-shape-render-3-3d303ca3-d359-8098-8007-ef66ec53c269-0"/></clipPath><path d="M15.846923828125,3.1556396484375C15.96978759765625,2.9072265625,16.222900390625,2.7501220703125,16.5,2.7501220703125C16.777099609375,2.7501220703125,17.03021240234375,2.9072265625,17.153076171875,3.1556396484375L20.329345703125,9.5892333984375C20.754150390625,10.44873046875,21.57391357421875,11.044921875,22.52252197265625,11.184326171875L29.62579345703125,12.2237548828125C29.9002685546875,12.2635498046875,30.12847900390625,12.4556884765625,30.2142333984375,12.7196044921875C30.30010986328125,12.9833984375,30.22857666015625,13.273193359375,30.030029296875,13.4666748046875L24.89300537109375,18.468994140625C24.20526123046875,19.13916015625,23.89111328125,20.104736328125,24.0528564453125,21.05126953125L25.265625,28.11865234375C25.31414794921875,28.393310546875,25.2017822265625,28.67138671875,24.97625732421875,28.8350830078125C24.750732421875,28.9989013671875,24.4515380859375,29.0196533203125,24.20550537109375,28.8887939453125L17.85577392578125,25.55029296875C17.0064697265625,25.1043701171875,15.9921875,25.1043701171875,15.14288330078125,25.55029296875L8.79449462890625,28.8887939453125C8.548583984375,29.01904296875,8.24993896484375,28.9976806640625,8.02490234375,28.833984375C7.7998046875,28.67041015625,7.6876220703125,28.392822265625,7.7357177734375,28.11865234375L8.9471435546875,21.052734375C9.10955810546875,20.105712890625,8.79534912109375,19.139404296875,8.10699462890625,18.468994140625L2.969970703125,13.4681396484375C2.7696533203125,13.274658203125,2.6971435546875,12.98388671875,2.78314208984375,12.7191162109375C2.86907958984375,12.4541015625,3.0985107421875,12.2613525390625,3.37420654296875,12.222412109375L10.47613525390625,11.184326171875C11.42584228515625,11.046142578125,12.2469482421875,10.4495849609375,12.6719970703125,9.5892333984375Z" id="stroke-shape-render-3-3d303ca3-d359-8098-8007-ef66ec53c269-0" style="fill: none; stroke-width: 4; stroke: rgb(228, 225, 243); stroke-opacity: 1;"/></defs><use href="#stroke-shape-render-3-3d303ca3-d359-8098-8007-ef66ec53c269-0" clip-path="url('#inner-stroke-render-3-3d303ca3-d359-8098-8007-ef66ec53c269-0')"/></g></g></g></g></svg>