<svg width="33" xmlns="http://www.w3.org/2000/svg" height="33" id="screenshot-461a28e4-4295-80cd-8007-ebaaa5364ab8" viewBox="0 0 33 33" xmlns:xlink="http://www.w3.org/1999/xlink" fill="none" version="1.1"><g id="shape-461a28e4-4295-80cd-8007-ebaaa5364ab8" width="24" class="lucide lucide-bookmark-icon lucide-bookmark" height="24" rx="0" ry="0" style="fill: rgb(0, 0, 0);"><g id="shape-461a28e4-4295-80cd-8007-ebaaa5369bc9" style="display: none;"><g class="fills" id="fills-461a28e4-4295-80cd-8007-ebaaa5369bc9"><rect width="33" height="33" x="0" stroke-linejoin="round" transform="matrix(1.000000, 0.000000, 0.000000, 1.000000, 0.000000, 0.000000)" style="fill: none;" ry="0" fill="none" stroke-linecap="round" rx="0" y="0"/></g><g fill="none" stroke-linejoin="round" stroke-linecap="round" id="strokes-7c2474c1-84bc-80e9-8007-ef668cbd28b9-461a28e4-4295-80cd-8007-ebaaa5369bc9" class="strokes"><g class="inner-stroke-shape" transform="matrix(1.000000, 0.000000, 0.000000, 1.000000, 0.000000, 0.000000)"><defs><clipPath id="inner-stroke-render-2-461a28e4-4295-80cd-8007-ebaaa5369bc9-0"><use href="#stroke-shape-render-2-461a28e4-4295-80cd-8007-ebaaa5369bc9-0"/></clipPath><rect rx="0" ry="0" x="0" y="0" width="33" height="33" id="stroke-shape-render-2-461a28e4-4295-80cd-8007-ebaaa5369bc9-0" style="fill: none; stroke-width: 4; stroke: rgb(228, 225, 243); stroke-opacity: 1;"/></defs><use href="#stroke-shape-render-2-461a28e4-4295-80cd-8007-ebaaa5369bc9-0" clip-path="url('#inner-stroke-render-2-461a28e4-4295-80cd-8007-ebaaa5369bc9-0')"/></g></g></g><g id="shape-461a28e4-4295-80cd-8007-ebaaa5369bca"><g class="fills" id="fills-461a28e4-4295-80cd-8007-ebaaa5369bca"><path d="M23.375,4.125C24.893798828125,4.125,26.125,5.356201171875,26.125,6.875L26.125,27.5C26.12481689453125,27.990028381347656,25.8638916015625,28.442916870117188,25.4400634765625,28.688858032226562C25.016204833984375,28.934799194335938,24.493499755859375,28.936553955078125,24.0679931640625,28.693511962890625L17.863983154296875,25.148757934570312C17.018768310546875,24.66595458984375,15.981231689453125,24.66595458984375,15.136016845703125,25.148757934570312L8.9320068359375,28.693511962890625C8.506500244140625,28.936553955078125,7.983795166015625,28.934799194335938,7.5599365234375,28.688858032226562C7.1361083984375,28.442916870117188,6.875152587890625,27.990028381347656,6.875,27.5L6.875,6.875C6.875,5.356201171875,8.106201171875,4.125,9.625,4.125Z" fill="none" stroke-linejoin="round" stroke-linecap="round" style="fill: none;"/></g><g fill="none" stroke-linejoin="round" stroke-linecap="round" id="strokes-7c2474c1-84bc-80e9-8007-ef668cbe8902-461a28e4-4295-80cd-8007-ebaaa5369bca" class="strokes"><g class="inner-stroke-shape"><defs><clipPath id="inner-stroke-render-3-461a28e4-4295-80cd-8007-ebaaa5369bca-0"><use href="#stroke-shape-render-3-461a28e4-4295-80cd-8007-ebaaa5369bca-0"/></clipPath><path d="M23.375,4.125C24.893798828125,4.125,26.125,5.356201171875,26.125,6.875L26.125,27.5C26.12481689453125,27.990028381347656,25.8638916015625,28.442916870117188,25.4400634765625,28.688858032226562C25.016204833984375,28.934799194335938,24.493499755859375,28.936553955078125,24.0679931640625,28.693511962890625L17.863983154296875,25.148757934570312C17.018768310546875,24.66595458984375,15.981231689453125,24.66595458984375,15.136016845703125,25.148757934570312L8.9320068359375,28.693511962890625C8.506500244140625,28.936553955078125,7.983795166015625,28.934799194335938,7.5599365234375,28.688858032226562C7.1361083984375,28.442916870117188,6.875152587890625,27.990028381347656,6.875,27.5L6.875,6.875C6.875,5.356201171875,8.106201171875,4.125,9.625,4.125Z" id="stroke-shape-render-3-461a28e4-4295-80cd-8007-ebaaa5369bca-0" style="fill: none; stroke-width: 4; stroke: rgb(228, 225, 243); stroke-opacity: 1;"/></defs><use href="#stroke-shape-render-3-461a28e4-4295-80cd-8007-ebaaa5369bca-0" clip-path="url('#inner-stroke-render-3-461a28e4-4295-80cd-8007-ebaaa5369bca-0')"/></g></g></g></g></svg>