<svg width="33" xmlns="http://www.w3.org/2000/svg" height="33" id="screenshot-461a28e4-4295-80cd-8007-ebaaa525b65f" viewBox="0 0 33 33" xmlns:xlink="http://www.w3.org/1999/xlink" fill="none" version="1.1"><g id="shape-461a28e4-4295-80cd-8007-ebaaa525b65f" width="24" class="lucide lucide-download-icon lucide-download" height="24" rx="0" ry="0" style="fill: rgb(0, 0, 0);"><g id="shape-461a28e4-4295-80cd-8007-ebaaa5260c9d" style="display: none;"><g class="fills" id="fills-461a28e4-4295-80cd-8007-ebaaa5260c9d"><rect width="33" height="33" x="0" stroke-linejoin="round" transform="matrix(1.000000, 0.000000, 0.000000, 1.000000, 0.000000, 0.000000)" style="fill: none;" ry="0" fill="none" stroke-linecap="round" rx="0" y="0"/></g><g fill="none" stroke-linejoin="round" stroke-linecap="round" id="strokes-700e6f46-1df0-808a-8007-ef66a16684f3-461a28e4-4295-80cd-8007-ebaaa5260c9d" class="strokes"><g class="inner-stroke-shape" transform="matrix(1.000000, 0.000000, 0.000000, 1.000000, 0.000000, 0.000000)"><defs><clipPath id="inner-stroke-render-2-461a28e4-4295-80cd-8007-ebaaa5260c9d-0"><use href="#stroke-shape-render-2-461a28e4-4295-80cd-8007-ebaaa5260c9d-0"/></clipPath><rect rx="0" ry="0" x="0" y="0" width="33" height="33" id="stroke-shape-render-2-461a28e4-4295-80cd-8007-ebaaa5260c9d-0" style="fill: none; stroke-width: 4; stroke: rgb(228, 225, 243); stroke-opacity: 1;"/></defs><use href="#stroke-shape-render-2-461a28e4-4295-80cd-8007-ebaaa5260c9d-0" clip-path="url('#inner-stroke-render-2-461a28e4-4295-80cd-8007-ebaaa5260c9d-0')"/></g></g></g><g id="shape-461a28e4-4295-80cd-8007-ebaaa5260c9e"><g class="fills" id="fills-461a28e4-4295-80cd-8007-ebaaa5260c9e"><path d="M16.5,20.625L16.5,4.125" fill="none" stroke-linejoin="round" stroke-linecap="round" style="fill: none;"/></g><g fill="none" stroke-linejoin="round" stroke-linecap="round" id="strokes-700e6f46-1df0-808a-8007-ef66a167fa26-461a28e4-4295-80cd-8007-ebaaa5260c9e" class="strokes"><g class="stroke-shape"><path d="M16.5,20.625L16.5,4.125" style="fill: none; stroke-width: 2; stroke: rgb(228, 225, 243); stroke-opacity: 1;"/></g></g></g><g id="shape-461a28e4-4295-80cd-8007-ebaaa5260c9f"><g class="fills" id="fills-461a28e4-4295-80cd-8007-ebaaa5260c9f"><path d="M28.875,20.625L28.875,26.125C28.875,27.643798828125,27.643798828125,28.875,26.125,28.875L6.875,28.875C5.356201171875,28.875,4.125,27.643798828125,4.125,26.125L4.125,20.625" fill="none" stroke-linejoin="round" stroke-linecap="round" style="fill: none;"/></g><g fill="none" stroke-linejoin="round" stroke-linecap="round" id="strokes-700e6f46-1df0-808a-8007-ef66a168499d-461a28e4-4295-80cd-8007-ebaaa5260c9f" class="strokes"><g class="stroke-shape"><path d="M28.875,20.625L28.875,26.125C28.875,27.643798828125,27.643798828125,28.875,26.125,28.875L6.875,28.875C5.356201171875,28.875,4.125,27.643798828125,4.125,26.125L4.125,20.625" style="fill: none; stroke-width: 2; stroke: rgb(228, 225, 243); stroke-opacity: 1;"/></g></g></g><g id="shape-461a28e4-4295-80cd-8007-ebaaa5264cd5"><g class="fills" id="fills-461a28e4-4295-80cd-8007-ebaaa5264cd5"><path d="M9.625,13.75L16.5,20.625L23.375,13.75" fill="none" stroke-linejoin="round" stroke-linecap="round" style="fill: none;"/></g><g fill="none" stroke-linejoin="round" stroke-linecap="round" id="strokes-700e6f46-1df0-808a-8007-ef66a168b262-461a28e4-4295-80cd-8007-ebaaa5264cd5" class="strokes"><g class="stroke-shape"><path d="M9.625,13.75L16.5,20.625L23.375,13.75" style="fill: none; stroke-width: 2; stroke: rgb(228, 225, 243); stroke-opacity: 1;"/></g></g></g></g></svg>