<svg width="33" xmlns="http://www.w3.org/2000/svg" height="33" id="screenshot-461a28e4-4295-80cd-8007-ebaaa533ad69" viewBox="0 0 33 33" xmlns:xlink="http://www.w3.org/1999/xlink" fill="none" version="1.1"><g id="shape-461a28e4-4295-80cd-8007-ebaaa533ad69" width="24" class="lucide lucide-funnel-icon lucide-funnel" height="24" rx="0" ry="0" style="fill: rgb(0, 0, 0);"><g id="shape-461a28e4-4295-80cd-8007-ebaaa533c805" style="display: none;"><g class="fills" id="fills-461a28e4-4295-80cd-8007-ebaaa533c805"><rect width="33" height="33" x="0" stroke-linejoin="round" transform="matrix(1.000000, 0.000000, 0.000000, 1.000000, 0.000000, 0.000000)" style="fill: none;" ry="0" fill="none" stroke-linecap="round" rx="0" y="0"/></g><g fill="none" stroke-linejoin="round" stroke-linecap="round" id="strokes-439a0079-f9ec-8035-8007-ef66783eccf3-461a28e4-4295-80cd-8007-ebaaa533c805" class="strokes"><g class="inner-stroke-shape" transform="matrix(1.000000, 0.000000, 0.000000, 1.000000, 0.000000, 0.000000)"><defs><clipPath id="inner-stroke-render-2-461a28e4-4295-80cd-8007-ebaaa533c805-0"><use href="#stroke-shape-render-2-461a28e4-4295-80cd-8007-ebaaa533c805-0"/></clipPath><rect rx="0" ry="0" x="0" y="0" width="33" height="33" id="stroke-shape-render-2-461a28e4-4295-80cd-8007-ebaaa533c805-0" style="fill: none; stroke-width: 4; stroke: rgb(228, 225, 243); stroke-opacity: 1;"/></defs><use href="#stroke-shape-render-2-461a28e4-4295-80cd-8007-ebaaa533c805-0" clip-path="url('#inner-stroke-render-2-461a28e4-4295-80cd-8007-ebaaa533c805-0')"/></g></g></g><g id="shape-461a28e4-4295-80cd-8007-ebaaa534073b"><g class="fills" id="fills-461a28e4-4295-80cd-8007-ebaaa534073b"><path d="M13.75,27.5C13.749740600585938,28.021163940429688,14.044204711914062,28.4976806640625,14.5103759765625,28.730621337890625L17.2603759765625,30.105621337890625C17.68670654296875,30.318649291992188,18.19293212890625,30.295730590820312,18.598281860351562,30.045028686523438C19.003631591796875,29.794326782226562,19.250198364257812,29.351608276367188,19.25,28.875L19.25,19.25C19.25030517578125,18.56854248046875,19.503616333007812,17.911422729492188,19.960861206054688,17.406112670898438L29.892486572265625,6.4212799072265625C30.256179809570312,6.018310546875,30.348724365234375,5.439208984375,30.12884521484375,4.9429473876953125C29.908966064453125,4.4467315673828125,29.41778564453125,4.126312255859375,28.875,4.125L4.125,4.125C3.5817108154296875,4.1251983642578125,3.0895233154296875,4.44525146484375,2.8689727783203125,4.94171142578125C2.6483612060546875,5.438140869140625,2.7407684326171875,6.017974853515625,3.1047515869140625,6.4212799072265625L13.039138793945312,17.406112670898438C13.496383666992188,17.911422729492188,13.74969482421875,18.56854248046875,13.75,19.25Z" fill="none" stroke-linejoin="round" stroke-linecap="round" style="fill: none;"/></g><g fill="none" stroke-linejoin="round" stroke-linecap="round" id="strokes-439a0079-f9ec-8035-8007-ef66784035b5-461a28e4-4295-80cd-8007-ebaaa534073b" class="strokes"><g class="inner-stroke-shape"><defs><clipPath id="inner-stroke-render-3-461a28e4-4295-80cd-8007-ebaaa534073b-0"><use href="#stroke-shape-render-3-461a28e4-4295-80cd-8007-ebaaa534073b-0"/></clipPath><path d="M13.75,27.5C13.749740600585938,28.021163940429688,14.044204711914062,28.4976806640625,14.5103759765625,28.730621337890625L17.2603759765625,30.105621337890625C17.68670654296875,30.318649291992188,18.19293212890625,30.295730590820312,18.598281860351562,30.045028686523438C19.003631591796875,29.794326782226562,19.250198364257812,29.351608276367188,19.25,28.875L19.25,19.25C19.25030517578125,18.56854248046875,19.503616333007812,17.911422729492188,19.960861206054688,17.406112670898438L29.892486572265625,6.4212799072265625C30.256179809570312,6.018310546875,30.348724365234375,5.439208984375,30.12884521484375,4.9429473876953125C29.908966064453125,4.4467315673828125,29.41778564453125,4.126312255859375,28.875,4.125L4.125,4.125C3.5817108154296875,4.1251983642578125,3.0895233154296875,4.44525146484375,2.8689727783203125,4.94171142578125C2.6483612060546875,5.438140869140625,2.7407684326171875,6.017974853515625,3.1047515869140625,6.4212799072265625L13.039138793945312,17.406112670898438C13.496383666992188,17.911422729492188,13.74969482421875,18.56854248046875,13.75,19.25Z" id="stroke-shape-render-3-461a28e4-4295-80cd-8007-ebaaa534073b-0" style="fill: none; stroke-width: 4; stroke: rgb(228, 225, 243); stroke-opacity: 1;"/></defs><use href="#stroke-shape-render-3-461a28e4-4295-80cd-8007-ebaaa534073b-0" clip-path="url('#inner-stroke-render-3-461a28e4-4295-80cd-8007-ebaaa534073b-0')"/></g></g></g></g></svg>