<svg width="33" xmlns="http://www.w3.org/2000/svg" height="33" id="screenshot-461a28e4-4295-80cd-8007-ebaaa52d119d" viewBox="0 0 33 33" xmlns:xlink="http://www.w3.org/1999/xlink" fill="none" version="1.1"><g id="shape-461a28e4-4295-80cd-8007-ebaaa52d119d" width="24" class="lucide lucide-layers-icon lucide-layers" height="24" rx="0" ry="0" style="fill: rgb(0, 0, 0);"><g id="shape-461a28e4-4295-80cd-8007-ebaaa52d119f" style="display: none;"><g class="fills" id="fills-461a28e4-4295-80cd-8007-ebaaa52d119f"><rect width="33" height="33" x="0" stroke-linejoin="round" transform="matrix(1.000000, 0.000000, 0.000000, 1.000000, 0.000000, 0.000000)" style="fill: none;" ry="0" fill="none" stroke-linecap="round" rx="0" y="0"/></g><g fill="none" stroke-linejoin="round" stroke-linecap="round" id="strokes-0a06768e-c714-8079-8007-ef66831b6db2-461a28e4-4295-80cd-8007-ebaaa52d119f" class="strokes"><g class="inner-stroke-shape" transform="matrix(1.000000, 0.000000, 0.000000, 1.000000, 0.000000, 0.000000)"><defs><clipPath id="inner-stroke-render-2-461a28e4-4295-80cd-8007-ebaaa52d119f-0"><use href="#stroke-shape-render-2-461a28e4-4295-80cd-8007-ebaaa52d119f-0"/></clipPath><rect rx="0" ry="0" x="0" y="0" width="33" height="33" id="stroke-shape-render-2-461a28e4-4295-80cd-8007-ebaaa52d119f-0" style="fill: none; stroke-width: 4; stroke: rgb(228, 225, 243); stroke-opacity: 1;"/></defs><use href="#stroke-shape-render-2-461a28e4-4295-80cd-8007-ebaaa52d119f-0" clip-path="url('#inner-stroke-render-2-461a28e4-4295-80cd-8007-ebaaa52d119f-0')"/></g></g></g><g id="shape-461a28e4-4295-80cd-8007-ebaaa52d11a0"><g class="fills" id="fills-461a28e4-4295-80cd-8007-ebaaa52d11a0"><path d="M17.641220092773438,2.99749755859375C16.916336059570312,2.666839599609375,16.083663940429688,2.666839599609375,15.358779907226562,2.99749755859375L3.5749969482421875,8.359970092773438C3.0764617919921875,8.579818725585938,2.754730224609375,9.073287963867188,2.754730224609375,9.618118286132812C2.754730224609375,10.162979125976562,3.0764617919921875,10.656417846679688,3.5749969482421875,10.876266479492188L15.372482299804688,16.25250244140625C16.097427368164062,16.583160400390625,16.930099487304688,16.583160400390625,17.654983520507812,16.25250244140625L29.452529907226562,10.890029907226562C29.951034545898438,10.670181274414062,30.272750854492188,10.176712036132812,30.272750854492188,9.631881713867188C30.272750854492188,9.087020874023438,29.951034545898438,8.593582153320312,29.452529907226562,8.373733520507812Z" fill="none" stroke-linejoin="round" stroke-linecap="round" style="fill: none;"/></g><g fill="none" stroke-linejoin="round" stroke-linecap="round" id="strokes-0a06768e-c714-8079-8007-ef66831c8a21-461a28e4-4295-80cd-8007-ebaaa52d11a0" class="strokes"><g class="inner-stroke-shape"><defs><clipPath id="inner-stroke-render-3-461a28e4-4295-80cd-8007-ebaaa52d11a0-0"><use href="#stroke-shape-render-3-461a28e4-4295-80cd-8007-ebaaa52d11a0-0"/></clipPath><path d="M17.641220092773438,2.99749755859375C16.916336059570312,2.666839599609375,16.083663940429688,2.666839599609375,15.358779907226562,2.99749755859375L3.5749969482421875,8.359970092773438C3.0764617919921875,8.579818725585938,2.754730224609375,9.073287963867188,2.754730224609375,9.618118286132812C2.754730224609375,10.162979125976562,3.0764617919921875,10.656417846679688,3.5749969482421875,10.876266479492188L15.372482299804688,16.25250244140625C16.097427368164062,16.583160400390625,16.930099487304688,16.583160400390625,17.654983520507812,16.25250244140625L29.452529907226562,10.890029907226562C29.951034545898438,10.670181274414062,30.272750854492188,10.176712036132812,30.272750854492188,9.631881713867188C30.272750854492188,9.087020874023438,29.951034545898438,8.593582153320312,29.452529907226562,8.373733520507812Z" id="stroke-shape-render-3-461a28e4-4295-80cd-8007-ebaaa52d11a0-0" style="fill: none; stroke-width: 4; stroke: rgb(228, 225, 243); stroke-opacity: 1;"/></defs><use href="#stroke-shape-render-3-461a28e4-4295-80cd-8007-ebaaa52d11a0-0" clip-path="url('#inner-stroke-render-3-461a28e4-4295-80cd-8007-ebaaa52d11a0-0')"/></g></g></g><g id="shape-461a28e4-4295-80cd-8007-ebaaa52d8673"><g class="fills" id="fills-461a28e4-4295-80cd-8007-ebaaa52d8673"><path d="M2.75,16.5C2.7486572265625,17.037017822265625,3.060150146484375,17.525711059570312,3.5474700927734375,17.751266479492188L15.372482299804688,23.127517700195312C16.093505859375,23.453964233398438,16.920257568359375,23.453964233398438,17.641220092773438,23.127517700195312L29.438766479492188,17.765029907226562C29.936050415039062,17.541488647460938,30.25433349609375,17.045196533203125,30.25,16.5" fill="none" stroke-linejoin="round" stroke-linecap="round" style="fill: none;"/></g><g fill="none" stroke-linejoin="round" stroke-linecap="round" id="strokes-0a06768e-c714-8079-8007-ef66831d7229-461a28e4-4295-80cd-8007-ebaaa52d8673" class="strokes"><g class="stroke-shape"><path d="M2.75,16.5C2.7486572265625,17.037017822265625,3.060150146484375,17.525711059570312,3.5474700927734375,17.751266479492188L15.372482299804688,23.127517700195312C16.093505859375,23.453964233398438,16.920257568359375,23.453964233398438,17.641220092773438,23.127517700195312L29.438766479492188,17.765029907226562C29.936050415039062,17.541488647460938,30.25433349609375,17.045196533203125,30.25,16.5" style="fill: none; stroke-width: 2; stroke: rgb(228, 225, 243); stroke-opacity: 1;"/></g></g></g><g id="shape-461a28e4-4295-80cd-8007-ebaaa52d8674"><g class="fills" id="fills-461a28e4-4295-80cd-8007-ebaaa52d8674"><path d="M2.75,23.375C2.7486572265625,23.912033081054688,3.060150146484375,24.400711059570312,3.5474700927734375,24.626266479492188L15.372482299804688,30.002517700195312C16.093505859375,30.328964233398438,16.920257568359375,30.328964233398438,17.641220092773438,30.002517700195312L29.438766479492188,24.640029907226562C29.936050415039062,24.416488647460938,30.25433349609375,23.920196533203125,30.25,23.375" fill="none" stroke-linejoin="round" stroke-linecap="round" style="fill: none;"/></g><g fill="none" stroke-linejoin="round" stroke-linecap="round" id="strokes-0a06768e-c714-8079-8007-ef66831dbda5-461a28e4-4295-80cd-8007-ebaaa52d8674" class="strokes"><g class="stroke-shape"><path d="M2.75,23.375C2.7486572265625,23.912033081054688,3.060150146484375,24.400711059570312,3.5474700927734375,24.626266479492188L15.372482299804688,30.002517700195312C16.093505859375,30.328964233398438,16.920257568359375,30.328964233398438,17.641220092773438,30.002517700195312L29.438766479492188,24.640029907226562C29.936050415039062,24.416488647460938,30.25433349609375,23.920196533203125,30.25,23.375" style="fill: none; stroke-width: 2; stroke: rgb(228, 225, 243); stroke-opacity: 1;"/></g></g></g></g></svg>