<svg width="33" xmlns="http://www.w3.org/2000/svg" height="33" id="screenshot-3d303ca3-d359-8098-8007-ef5158c96fe6" viewBox="0 0 33 33" xmlns:xlink="http://www.w3.org/1999/xlink" fill="none" version="1.1"><g id="shape-3d303ca3-d359-8098-8007-ef5158c96fe6" width="24" class="lucide lucide-camera-icon lucide-camera" height="24" rx="0" ry="0" style="fill: rgb(0, 0, 0);"><g id="shape-3d303ca3-d359-8098-8007-ef5158c9c293" style="display: none;"><g class="fills" id="fills-3d303ca3-d359-8098-8007-ef5158c9c293"><rect width="33" height="33" x="0" stroke-linejoin="round" transform="matrix(1.000000, 0.000000, 0.000000, 1.000000, 0.000000, 0.000000)" style="fill: none;" ry="0" fill="none" stroke-linecap="round" rx="0" y="0"/></g><g fill="none" stroke-linejoin="round" stroke-linecap="round" id="strokes-9ac9b085-dd8d-80fb-8007-ef66978bf2c8-3d303ca3-d359-8098-8007-ef5158c9c293" class="strokes"><g class="inner-stroke-shape" transform="matrix(1.000000, 0.000000, 0.000000, 1.000000, 0.000000, 0.000000)"><defs><clipPath id="inner-stroke-render-2-3d303ca3-d359-8098-8007-ef5158c9c293-0"><use href="#stroke-shape-render-2-3d303ca3-d359-8098-8007-ef5158c9c293-0"/></clipPath><rect rx="0" ry="0" x="0" y="0" width="33" height="33" id="stroke-shape-render-2-3d303ca3-d359-8098-8007-ef5158c9c293-0" style="fill: none; stroke-width: 4; stroke: rgb(228, 225, 243); stroke-opacity: 1;"/></defs><use href="#stroke-shape-render-2-3d303ca3-d359-8098-8007-ef5158c9c293-0" clip-path="url('#inner-stroke-render-2-3d303ca3-d359-8098-8007-ef5158c9c293-0')"/></g></g></g><g id="shape-3d303ca3-d359-8098-8007-ef5158ca092b"><g class="fills" id="fills-3d303ca3-d359-8098-8007-ef5158ca092b"><path d="M19.245887756347656,5.5C20.256576538085938,5.5,21.185775756835938,6.05438232421875,21.66590118408203,6.9437255859375L22.33409881591797,8.1812744140625C22.814224243164062,9.07061767578125,23.743423461914062,9.625,24.754112243652344,9.625L27.5,9.625C29.018760681152344,9.625,30.25,10.856231689453125,30.25,12.375L30.25,24.75C30.25,26.26873779296875,29.018760681152344,27.5,27.5,27.5L5.5,27.5C3.9812393188476562,27.5,2.75,26.26873779296875,2.75,24.75L2.75,12.375C2.75,10.856231689453125,3.9812393188476562,9.625,5.5,9.625L8.245887756347656,9.625C9.255485534667969,9.625091552734375,10.183929443359375,9.071868896484375,10.664474487304688,8.18402099609375L11.336868286132812,6.94097900390625C11.817413330078125,6.053131103515625,12.745941162109375,5.499969482421875,13.755538940429688,5.5Z" fill="none" stroke-linejoin="round" stroke-linecap="round" style="fill: none;"/></g><g fill="none" stroke-linejoin="round" stroke-linecap="round" id="strokes-9ac9b085-dd8d-80fb-8007-ef66978d015a-3d303ca3-d359-8098-8007-ef5158ca092b" class="strokes"><g class="inner-stroke-shape"><defs><clipPath id="inner-stroke-render-3-3d303ca3-d359-8098-8007-ef5158ca092b-0"><use href="#stroke-shape-render-3-3d303ca3-d359-8098-8007-ef5158ca092b-0"/></clipPath><path d="M19.245887756347656,5.5C20.256576538085938,5.5,21.185775756835938,6.05438232421875,21.66590118408203,6.9437255859375L22.33409881591797,8.1812744140625C22.814224243164062,9.07061767578125,23.743423461914062,9.625,24.754112243652344,9.625L27.5,9.625C29.018760681152344,9.625,30.25,10.856231689453125,30.25,12.375L30.25,24.75C30.25,26.26873779296875,29.018760681152344,27.5,27.5,27.5L5.5,27.5C3.9812393188476562,27.5,2.75,26.26873779296875,2.75,24.75L2.75,12.375C2.75,10.856231689453125,3.9812393188476562,9.625,5.5,9.625L8.245887756347656,9.625C9.255485534667969,9.625091552734375,10.183929443359375,9.071868896484375,10.664474487304688,8.18402099609375L11.336868286132812,6.94097900390625C11.817413330078125,6.053131103515625,12.745941162109375,5.499969482421875,13.755538940429688,5.5Z" id="stroke-shape-render-3-3d303ca3-d359-8098-8007-ef5158ca092b-0" style="fill: none; stroke-width: 4; stroke: rgb(228, 225, 243); stroke-opacity: 1;"/></defs><use href="#stroke-shape-render-3-3d303ca3-d359-8098-8007-ef5158ca092b-0" clip-path="url('#inner-stroke-render-3-3d303ca3-d359-8098-8007-ef5158ca092b-0')"/></g></g></g><g id="shape-3d303ca3-d359-8098-8007-ef5158ca62a5"><g class="fills" id="fills-3d303ca3-d359-8098-8007-ef5158ca62a5"><ellipse cy="17.875" stroke-linejoin="round" transform="matrix(1.000000, 0.000000, 0.000000, 1.000000, 0.000000, 0.000000)" style="fill: none;" ry="4.125" fill="none" stroke-linecap="round" rx="4.125" cx="16.5"/></g><g fill="none" stroke-linejoin="round" stroke-linecap="round" id="strokes-9ac9b085-dd8d-80fb-8007-ef66978dbb2f-3d303ca3-d359-8098-8007-ef5158ca62a5" class="strokes"><g class="inner-stroke-shape" transform="matrix(1.000000, 0.000000, 0.000000, 1.000000, 0.000000, 0.000000)"><defs><clipPath id="inner-stroke-render-4-3d303ca3-d359-8098-8007-ef5158ca62a5-0"><use href="#stroke-shape-render-4-3d303ca3-d359-8098-8007-ef5158ca62a5-0"/></clipPath><ellipse cx="16.5" cy="17.875" rx="4.125" ry="4.125" id="stroke-shape-render-4-3d303ca3-d359-8098-8007-ef5158ca62a5-0" style="fill: none; stroke-width: 4; stroke: rgb(228, 225, 243); stroke-opacity: 1;"/></defs><use href="#stroke-shape-render-4-3d303ca3-d359-8098-8007-ef5158ca62a5-0" clip-path="url('#inner-stroke-render-4-3d303ca3-d359-8098-8007-ef5158ca62a5-0')"/></g></g></g></g></svg>