<svg width="33" xmlns="http://www.w3.org/2000/svg" height="33" id="screenshot-461a28e4-4295-80cd-8007-ebaaa5442c1a" viewBox="0 0 33 33" xmlns:xlink="http://www.w3.org/1999/xlink" fill="none" version="1.1"><g id="shape-461a28e4-4295-80cd-8007-ebaaa5442c1a" width="24" class="lucide lucide-maximize-icon lucide-maximize" height="24" rx="0" ry="0" style="fill: rgb(0, 0, 0);"><g id="shape-461a28e4-4295-80cd-8007-ebaaa5444593" style="display: none;"><g class="fills" id="fills-461a28e4-4295-80cd-8007-ebaaa5444593"><rect width="33" height="33" x="0" stroke-linejoin="round" transform="matrix(1.000000, 0.000000, 0.000000, 1.000000, 0.000000, 0.000000)" style="fill: none;" ry="0" fill="none" stroke-linecap="round" rx="0" y="0"/></g><g fill="none" stroke-linejoin="round" stroke-linecap="round" id="strokes-ea163186-abcd-8056-8007-ef66c61e6e5e-461a28e4-4295-80cd-8007-ebaaa5444593" class="strokes"><g class="inner-stroke-shape" transform="matrix(1.000000, 0.000000, 0.000000, 1.000000, 0.000000, 0.000000)"><defs><clipPath id="inner-stroke-render-2-461a28e4-4295-80cd-8007-ebaaa5444593-0"><use href="#stroke-shape-render-2-461a28e4-4295-80cd-8007-ebaaa5444593-0"/></clipPath><rect rx="0" ry="0" x="0" y="0" width="33" height="33" id="stroke-shape-render-2-461a28e4-4295-80cd-8007-ebaaa5444593-0" style="fill: none; stroke-width: 4; stroke: rgb(228, 225, 243); stroke-opacity: 1;"/></defs><use href="#stroke-shape-render-2-461a28e4-4295-80cd-8007-ebaaa5444593-0" clip-path="url('#inner-stroke-render-2-461a28e4-4295-80cd-8007-ebaaa5444593-0')"/></g></g></g><g id="shape-461a28e4-4295-80cd-8007-ebaaa5444594"><g class="fills" id="fills-461a28e4-4295-80cd-8007-ebaaa5444594"><path d="M11,4.125L6.875,4.125C5.356201171875,4.125,4.125,5.356201171875,4.125,6.875L4.125,11" fill="none" stroke-linejoin="round" stroke-linecap="round" style="fill: none;"/></g><g fill="none" stroke-linejoin="round" stroke-linecap="round" id="strokes-ea163186-abcd-8056-8007-ef66c61f8959-461a28e4-4295-80cd-8007-ebaaa5444594" class="strokes"><g class="stroke-shape"><path d="M11,4.125L6.875,4.125C5.356201171875,4.125,4.125,5.356201171875,4.125,6.875L4.125,11" style="fill: none; stroke-width: 2; stroke: rgb(228, 225, 243); stroke-opacity: 1;"/></g></g></g><g id="shape-461a28e4-4295-80cd-8007-ebaaa5444595"><g class="fills" id="fills-461a28e4-4295-80cd-8007-ebaaa5444595"><path d="M28.875,11L28.875,6.875C28.875,5.356201171875,27.643798828125,4.125,26.125,4.125L22,4.125" fill="none" stroke-linejoin="round" stroke-linecap="round" style="fill: none;"/></g><g fill="none" stroke-linejoin="round" stroke-linecap="round" id="strokes-ea163186-abcd-8056-8007-ef66c62035f3-461a28e4-4295-80cd-8007-ebaaa5444595" class="strokes"><g class="stroke-shape"><path d="M28.875,11L28.875,6.875C28.875,5.356201171875,27.643798828125,4.125,26.125,4.125L22,4.125" style="fill: none; stroke-width: 2; stroke: rgb(228, 225, 243); stroke-opacity: 1;"/></g></g></g><g id="shape-461a28e4-4295-80cd-8007-ebaaa5444596"><g class="fills" id="fills-461a28e4-4295-80cd-8007-ebaaa5444596"><path d="M4.125,22L4.125,26.125C4.125,27.643798828125,5.356201171875,28.875,6.875,28.875L11,28.875" fill="none" stroke-linejoin="round" stroke-linecap="round" style="fill: none;"/></g><g fill="none" stroke-linejoin="round" stroke-linecap="round" id="strokes-ea163186-abcd-8056-8007-ef66c6206767-461a28e4-4295-80cd-8007-ebaaa5444596" class="strokes"><g class="stroke-shape"><path d="M4.125,22L4.125,26.125C4.125,27.643798828125,5.356201171875,28.875,6.875,28.875L11,28.875" style="fill: none; stroke-width: 2; stroke: rgb(228, 225, 243); stroke-opacity: 1;"/></g></g></g><g id="shape-461a28e4-4295-80cd-8007-ebaaa5444597"><g class="fills" id="fills-461a28e4-4295-80cd-8007-ebaaa5444597"><path d="M22,28.875L26.125,28.875C27.643798828125,28.875,28.875,27.643798828125,28.875,26.125L28.875,22" fill="none" stroke-linejoin="round" stroke-linecap="round" style="fill: none;"/></g><g fill="none" stroke-linejoin="round" stroke-linecap="round" id="strokes-ea163186-abcd-8056-8007-ef66c620ff5f-461a28e4-4295-80cd-8007-ebaaa5444597" class="strokes"><g class="stroke-shape"><path d="M22,28.875L26.125,28.875C27.643798828125,28.875,28.875,27.643798828125,28.875,26.125L28.875,22" style="fill: none; stroke-width: 2; stroke: rgb(228, 225, 243); stroke-opacity: 1;"/></g></g></g></g></svg>