<svg width="230" xmlns="http://www.w3.org/2000/svg" height="221" id="screenshot-a7ca88aa-a1e2-8070-8007-ea58ac5bd99e" viewBox="0 0 230 221" xmlns:xlink="http://www.w3.org/1999/xlink" fill="none" version="1.1"><g id="shape-a7ca88aa-a1e2-8070-8007-ea58ac5bd99e"><g class="frame-container-wrapper"><g class="frame-container-blur"><g class="frame-container-shadows"><g fill="none"><g class="fills" id="fills-a7ca88aa-a1e2-8070-8007-ea58ac5bd99e"><rect rx="0" ry="0" x="0" y="0" width="230" height="221" transform="matrix(1.000000, 0.000000, 0.000000, 1.000000, 0.000000, 0.000000)" class="frame-background"/></g><g class="frame-children"><g id="shape-fc43c2ff-0d28-805b-8007-ea448e9bfccb"><g class="fills" id="fills-fc43c2ff-0d28-805b-8007-ea448e9bfccb"><path d="M0,168.65771484375C25.467041015625,156.9521484375,41.2728271484375,134.6796875,41.2728271484375,110.5C41.2728271484375,86.3203125,25.467041015625,64.0478515625,0,52.34228515625L0,0L48.003173828125,0L48.003173828125,52.34228515625L47.7177734375,52.34228515625C73.184814453125,64.0478515625,88.9906005859375,86.3203125,88.9906005859375,110.5C88.9906005859375,134.6796875,73.184814453125,156.9521484375,47.7177734375,168.65771484375L0,168.65771484375M47.7177734375,168.65771484375L48.003173828125,168.65771484375L48.003173828125,221L0,221L0,168.65771484375M0,52.34228515625L47.7177734375,52.34228515625" style="fill: rgb(218, 41, 28); fill-opacity: 1;"/></g></g><g id="shape-fc43c2ff-0d28-805b-8007-ea572bb51e31"><g class="fills" id="fills-fc43c2ff-0d28-805b-8007-ea572bb51e31"><path d="M47.003173828125,168.65771484375C72.47021484375,156.9521484375,88.27587890625,134.6796875,88.27587890625,110.5C88.27587890625,86.3203125,72.47021484375,64.0478515625,47.003173828125,52.34228515625L47.003173828125,0L95.00634765625,0L95.00634765625,52.34228515625L94.720947265625,52.34228515625C120.18798828125,64.0478515625,135.9937744140625,86.3203125,135.9937744140625,110.5C135.9937744140625,134.6796875,120.18798828125,156.9521484375,94.720947265625,168.65771484375L47.003173828125,168.65771484375M94.720947265625,168.65771484375L95.00634765625,168.65771484375L95.00634765625,221L47.003173828125,221L47.003173828125,168.65771484375M47.003173828125,52.34228515625L94.720947265625,52.34228515625" style="fill: rgb(237, 139, 0); fill-opacity: 1;"/></g></g><g id="shape-fc43c2ff-0d28-805b-8007-ea572c61abcc"><g class="fills" id="fills-fc43c2ff-0d28-805b-8007-ea572c61abcc"><path d="M94.0062255859375,168.65771484375C119.4732666015625,156.9521484375,135.279052734375,134.6796875,135.279052734375,110.5C135.279052734375,86.3203125,119.4732666015625,64.0478515625,94.0062255859375,52.34228515625L94.0062255859375,0L142.009521484375,0L142.009521484375,52.34228515625L141.72412109375,52.34228515625C167.191162109375,64.0478515625,182.996826171875,86.3203125,182.996826171875,110.5C182.996826171875,134.6796875,167.191162109375,156.9521484375,141.72412109375,168.65771484375L94.0062255859375,168.65771484375M141.72412109375,168.65771484375L142.009521484375,168.65771484375L142.009521484375,221L94.0062255859375,221L94.0062255859375,168.65771484375M94.0062255859375,52.34228515625L141.72412109375,52.34228515625" style="fill: rgb(11, 122, 57);"/></g></g><g id="shape-fc43c2ff-0d28-805b-8007-ea572cd61f83"><g class="fills" id="fills-fc43c2ff-0d28-805b-8007-ea572cd61f83"><path d="M141.0093994140625,168.65771484375C166.4764404296875,156.9521484375,182.2822265625,134.6796875,182.2822265625,110.5C182.2822265625,86.3203125,166.4764404296875,64.0478515625,141.0093994140625,52.34228515625L141.0093994140625,0L189.0126953125,0L189.0126953125,52.34228515625L188.7271728515625,52.34228515625C214.1942138671875,64.0478515625,230,86.3203125,230,110.5C230,134.6796875,214.1942138671875,156.9521484375,188.7271728515625,168.65771484375L141.0093994140625,168.65771484375M188.7271728515625,168.65771484375L189.0126953125,168.65771484375L189.0126953125,221L141.0093994140625,221L141.0093994140625,168.65771484375M141.0093994140625,52.34228515625L188.7271728515625,52.34228515625" style="fill: rgb(0, 61, 165); fill-opacity: 1;"/></g></g></g></g></g></g></g></g></svg>